<?xml version="1.0" encoding="utf-8"?>
<!-- Generator: Adobe Illustrator 23.1.0, SVG Export Plug-In . SVG Version: 6.00 Build 0)  -->
<svg version="1.1" id="Layer_1" xmlns="http://www.w3.org/2000/svg" xmlns:xlink="http://www.w3.org/1999/xlink" x="0px" y="0px"
	 viewBox="0 0 477.5 304.9" style="enable-background:new 0 0 477.5 304.9;" xml:space="preserve">
<style type="text/css">
	.st0{fill:#48334D;}
	.st1{fill:#694B70;}
	.st2{fill:#896894;}
	.st3{fill:#A57DB3;}
	.st4{opacity:0.6;fill:#A381B0;enable-background:new    ;}
	.st5{fill:#B7D2E3;}
	.st6{opacity:0.2;fill:#FFFFFF;enable-background:new    ;}
	.st7{clip-path:url(#SVGID_2_);}
	.st8{fill:#7D6285;}
	.st9{fill:#F3E8FF;}
	.st10{fill:#48495C;}
	.st11{fill:#40BAB3;}
	.st12{fill:#FFFFFF;}
	.st13{fill:#FFAEB5;}
	.st14{fill:#525369;}
	.st15{fill:#FF7FA1;}
	.st16{fill:#8A455D;}
	.st17{fill:#6B3649;}
	.st18{fill:#F58C94;}
	.st19{fill:url(#SVGID_3_);}
	.st20{fill:#9E444B;}
	.st21{fill:#F0698D;}
	.st22{opacity:0.2;fill:#FF4D8B;enable-background:new    ;}
	.st23{opacity:0.1;fill:#CC525A;enable-background:new    ;}
	.st24{fill:#56475C;}
	.st25{fill:#824258;}
	.st26{opacity:0.6;fill:#775E80;enable-background:new    ;}
	.st27{fill:url(#SVGID_4_);}
	.st28{opacity:0.2;fill:#CC525A;enable-background:new    ;}
	.st29{fill:#737A8F;}
	.st30{fill:#6B7285;}
	.st31{fill:#7D859C;}
	.st32{fill:#8B94AD;}
	.st33{fill:#606778;}
	.st34{fill:#585E6E;}
	.st35{fill:#777F94;}
	.st36{fill:#858EA6;}
	.st37{fill:#604B66;}
</style>
<title>Main pic</title>
<g>
	<g id="_лой_1">
		<rect x="246.8" y="263.7" class="st0" width="18.2" height="23.6"/>
		<rect x="414.1" y="263.7" class="st0" width="18.2" height="23.6"/>
		<path class="st1" d="M229.5,63.7h237.3c5.9,0,10.7,4.8,10.7,10.7V261c0,5.9-4.8,10.7-10.7,10.7H229.5c-5.9,0-10.7-4.8-10.7-10.7
			V74.5C218.8,68.5,223.6,63.7,229.5,63.7z"/>
		<path class="st2" d="M218.8,63.7h237.3c5.9,0,10.7,4.8,10.7,10.7V261c0,5.9-4.8,10.7-10.7,10.7H218.8c-5.9,0-10.7-4.8-10.7-10.7
			V74.5C208.1,68.5,212.9,63.7,218.8,63.7z"/>
		<path class="st2" d="M91.7,277h328.9l0,0v11.8c0,8.9-7.2,16.1-16.1,16.1H107.8c-8.9,0-16.1-7.2-16.1-16.1c0,0,0,0,0,0V277
			L91.7,277z"/>
		<path class="st3" d="M172.6,277h74.9l0,0v3c0,3-2.4,5.4-5.4,5.4H178c-3,0-5.4-2.4-5.4-5.4L172.6,277L172.6,277z"/>
		<path class="st1" d="M350.4,277h119.8l0,0v11.8c0,8.9-7.2,16.1-16.1,16.1h-87.6c-8.9,0-16.1-7.2-16.1-16.1V277L350.4,277z"/>
		<rect x="374.4" y="283.5" class="st4" width="80.5" height="11.8"/>
		<rect x="218" y="85.6" class="st5" width="238.8" height="174.6"/>
		<polygon class="st6" points="414.1,260.2 456.8,217.5 456.8,167.1 363.7,260.2 		"/>
		<g>
			<defs>
				<circle id="SVGID_1_" cx="339.6" cy="171.4" r="51.5"/>
			</defs>
			<clipPath id="SVGID_2_">
				<use xlink:href="#SVGID_1_"  style="overflow:visible;"/>
			</clipPath>
			<g class="st7">
				<circle class="st8" cx="339.6" cy="171.4" r="56.9"/>
				<path class="st9" d="M319,233l65.5-21L372,173c-1.7-5.3-7.3-8.2-12.6-6.5l-46.5,14.9c-5.3,1.7-8.2,7.3-6.5,12.6L319,233z"/>
				<path class="st9" d="M398.8,191.5c-12.9,0-32.8-12.9-35-14.4l5.3-8.1l-2.7,4l2.7-4c5.4,3.6,21.2,12.8,29.7,12.8L398.8,191.5z"/>
				<path class="st10" d="M319,233l65.5-21l0.7,2.2c1.7,5.3-1.2,10.9-6.5,12.6l-46.5,14.9c-5.3,1.7-10.9-1.2-12.6-6.5L319,233z"/>
				<polygon class="st11" points="349.1,214.2 354.7,200.5 342.1,180.7 335.3,182.9 336.5,206.3 				"/>
				<polygon class="st11" points="335.6,183.8 328.5,176.4 343.8,171.5 342.4,181.7 				"/>
				<polygon class="st12" points="336.4,173.8 312.9,181.4 323.5,189.2 				"/>
				<polygon class="st12" points="335.9,174 359.4,166.5 355.3,179 				"/>
			</g>
		</g>
		<path class="st13" d="M7.3,124.6c-0.2-0.8,6-14.1,1.2-9.8s-1.8-5.6-6-4.5s0.1,15.9,0.1,15.9"/>
		<path class="st13" d="M174.3,116c0.2-0.8-6-14.1-1.2-9.8s1.9-5.7,6-4.5c4.1,1.1-0.1,15.9-0.1,15.9"/>
		<path class="st9" d="M64.6,241.9l68.6-5.2l-3.1-40.9c-0.4-5.5-5.2-9.6-10.7-9.2l-48.6,3.7c-5.5,0.4-9.6,5.2-9.2,10.7L64.6,241.9z"
			/>
		<path class="st14" d="M64.6,241.9l68.6-5.2l0.2,2.3c0.4,5.5-3.7,10.3-9.2,10.7l-48.6,3.7c-5.5,0.4-10.3-3.7-10.7-9.2L64.6,241.9z"
			/>
		<polygon class="st15" points="98.2,230.6 107.3,223.9 99.2,196.4 92.1,196.9 88.3,225.4 		"/>
		<polygon class="st15" points="92.1,197.9 87,189 103,187.8 99.3,197.4 		"/>
		<polygon class="st12" points="95.3,188.4 70.7,190.3 79.2,200.3 		"/>
		<polygon class="st12" points="94.7,188.5 119.3,186.6 112.5,197.8 		"/>
		<rect x="76.7" y="248.2" class="st14" width="9" height="48.8"/>
		<polygon class="st16" points="85.6,297 96.5,304.9 76.8,304.9 76.8,297 		"/>
		<rect x="107.3" y="248.2" class="st14" width="9" height="48.8"/>
		<polygon class="st16" points="116.1,297 127.1,304.9 107.4,304.9 107.4,297 		"/>
		<path class="st16" d="M135.1,144l-83.8,4.4c-11.6,0.6-21.5-8.3-22.1-19.9L27,87.3c-0.6-11.6,8-26.7,19.6-27.4l83.8-4.4
			c11.6-0.6,21.8,13.6,22.4,25.2l2.2,41.2C155.6,133.5,146.7,143.4,135.1,144C135.1,144,135.1,144,135.1,144z"/>
		<path class="st17" d="M50.1,66.5c0,0-0.9,30.2,56.9,27.2l16.4-31L50.1,66.5z"/>
		<path class="st18" d="M149.3,123.3l-114.4,6c-3.5,0.2-6.5-2.5-6.7-6c0,0,0,0,0,0l0,0c-0.2-3.5,2.5-6.5,6-6.7c0,0,0,0,0,0l114.4-6
			c3.5-0.2,6.5,2.5,6.7,6c0,0,0,0,0,0l0,0C155.5,120.1,152.8,123.1,149.3,123.3C149.3,123.3,149.3,123.3,149.3,123.3z"/>
		
			<linearGradient id="SVGID_3_" gradientUnits="userSpaceOnUse" x1="41.9917" y1="62.0401" x2="41.9917" y2="-40.3199" gradientTransform="matrix(1 -5.000000e-02 -5.000000e-02 -1 50.9987 145.5889)">
			<stop  offset="0" style="stop-color:#FFC4C8"/>
			<stop  offset="0.11" style="stop-color:#FFBEC2"/>
			<stop  offset="0.25" style="stop-color:#FFAEB5"/>
			<stop  offset="0.57" style="stop-color:#FEACB3"/>
			<stop  offset="0.72" style="stop-color:#FBA4AC"/>
			<stop  offset="0.85" style="stop-color:#F697A0"/>
			<stop  offset="0.95" style="stop-color:#F0848E"/>
			<stop  offset="1" style="stop-color:#EB7883"/>
		</linearGradient>
		<path class="st19" d="M144.6,88.4l3.2,61.6c0.9,16.5-11.8,30.7-28.4,31.5c0,0,0,0,0,0l-48.7,2.6c-16.5,0.9-30.7-11.8-31.5-28.4
			L36,94.1c-0.3-5.5,3.9-10.2,9.4-10.5c0,0,0,0,0,0l88.6-4.7C139.6,78.6,144.3,82.9,144.6,88.4C144.6,88.4,144.6,88.4,144.6,88.4z"
			/>
		<path class="st20" d="M88,172.7c-4-6-0.8-19.4,9.7-20.1s14.3,14.5,11.8,18.7s-4.7,1.2-10.1,1.4S92,178.7,88,172.7z"/>
		<path class="st21" d="M89.4,174.4c3.2,2.9,5.4-1.5,10.1-1.7c5-0.2,7.3,2.4,9.5-0.5C99.9,160.6,92.5,169.4,89.4,174.4z"/>
		<circle class="st22" cx="59" cy="147.3" r="8"/>
		<circle class="st22" cx="131.7" cy="144" r="8"/>
		<circle class="st23" cx="68.9" cy="125.1" r="13.4"/>
		<circle class="st23" cx="119.5" cy="122.5" r="13.4"/>
		<path class="st16" d="M50.1,66.5c0,0,17.1,29.3,74.9,26.2l-1.6-30.1L50.1,66.5z"/>
		<circle class="st12" cx="68.6" cy="119.9" r="13.4"/>
		
			<ellipse transform="matrix(0.9988 -4.993772e-02 4.993772e-02 0.9988 -5.9739 3.9103)" class="st24" cx="75.3" cy="121.5" rx="4.6" ry="4.6"/>
		<circle class="st12" cx="119.2" cy="117.2" r="13.4"/>
		<circle class="st24" cx="123.8" cy="120" r="4.6"/>
		<path class="st25" d="M76.4,97.3L65.5,101c0.3-2.9,1.7-5.3,4-6S74.5,95.2,76.4,97.3z"/>
		<path class="st25" d="M108.7,97.5l11.3,2.3c-0.6-2.8-2.3-5-4.7-5.5S110.4,95.2,108.7,97.5z"/>
		<path class="st9" d="M128.1,198.5l-1.4-9.6c17-2.6,27.5-18.7,33.4-31.9c6.9-15.5,10.4-33.6,10.6-43.8l9.6,0.3
			c-0.3,11.6-4,30.7-11.5,47.5C159,183,144.9,195.9,128.1,198.5z"/>
		<path class="st9" d="M65.9,201.5c-15,0-30-10.2-43.6-29.9C9.5,153.1,1.9,132.5,0,123.2l9.5-2c1.7,8.2,8.8,27.7,20.8,44.8
			c9.1,13.1,23.5,28.2,39.8,25.4l1.7,9.5C69.8,201.3,67.8,201.4,65.9,201.5z"/>
		<circle class="st26" cx="340.4" cy="74.3" r="5.4"/>
		<path class="st18" d="M375.7,112.3l-114.5-4c-3.5-0.1-6.2-3-6.1-6.5c0,0,0,0,0,0l0,0c0.1-3.5,3-6.2,6.5-6.1c0,0,0,0,0,0l114.5,4
			c3.5,0.1,6.2,3,6.1,6.5c0,0,0,0,0,0l0,0C382.2,109.7,379.2,112.4,375.7,112.3C375.7,112.3,375.7,112.3,375.7,112.3z"/>
		
			<linearGradient id="SVGID_4_" gradientUnits="userSpaceOnUse" x1="312.14" y1="229.4352" x2="312.14" y2="127.0752" gradientTransform="matrix(0.9994 3.489950e-02 3.489950e-02 -0.9994 0.1535 283.4175)">
			<stop  offset="0" style="stop-color:#FFC4C8"/>
			<stop  offset="0.11" style="stop-color:#FFBEC2"/>
			<stop  offset="0.25" style="stop-color:#FFAEB5"/>
			<stop  offset="0.57" style="stop-color:#FEACB3"/>
			<stop  offset="0.72" style="stop-color:#FBA4AC"/>
			<stop  offset="0.85" style="stop-color:#F697A0"/>
			<stop  offset="0.95" style="stop-color:#F0848E"/>
			<stop  offset="1" style="stop-color:#EB7883"/>
		</linearGradient>
		<path class="st27" d="M374.1,77.2l-2.1,61.7c-0.6,16.5-14.5,29.5-31,28.9l-48.8-1.7c-16.5-0.6-29.5-14.5-28.9-31l2.1-61.7
			c0.2-5.5,4.8-9.8,10.3-9.6l88.7,3.1C370,67.1,374.3,71.7,374.1,77.2z"/>
		
			<ellipse transform="matrix(3.489951e-02 -0.9994 0.9994 3.489951e-02 232.3916 458.4534)" class="st28" cx="353.6" cy="108.9" rx="13.5" ry="13.4"/>
		
			<ellipse transform="matrix(3.489951e-02 -0.9994 0.9994 3.489951e-02 237.814 453.583)" class="st12" cx="353.8" cy="103.7" rx="13.5" ry="13.4"/>
		
			<ellipse transform="matrix(3.489947e-02 -0.9994 0.9994 3.489947e-02 228.2211 448.6555)" class="st24" cx="346.4" cy="106.2" rx="4" ry="4"/>
		<path class="st10" d="M345.3,90.3l10.4-4.9c-2.2-1.9-4.9-2.6-7.1-1.6S345.3,87.4,345.3,90.3z"/>
		
			<ellipse transform="matrix(3.489951e-02 -0.9994 0.9994 3.489951e-02 166.6756 386.8544)" class="st28" cx="283.6" cy="107.1" rx="13.5" ry="13.4"/>
		
			<ellipse transform="matrix(3.489951e-02 -0.9994 0.9994 3.489951e-02 172.0887 381.9737)" class="st12" cx="283.8" cy="101.9" rx="13.5" ry="13.4"/>
		
			<ellipse transform="matrix(3.489950e-02 -0.9994 0.9994 3.489950e-02 167.1335 382.9329)" class="st24" cx="281.8" cy="104.9" rx="4.3" ry="4.3"/>
		<path class="st10" d="M293.7,89.5l-9.9-5.9c2.4-1.7,5.1-2.1,7.2-0.8S294.1,86.6,293.7,89.5z"/>
		<path class="st14" d="M359.4,42.5c5.4-11.3-8.4-19.7-19.5-25.7c-8.2-4.4,4.1-11.3,0.3-12.3C332.9,2.6,316,14.8,325.5,24
			c3.5,3.4,11.3,12.8-17,14.1c-37,1.7-44.8,14.4-44.8,31.8l-2.2,63.6c-0.5,11,5,21.5,14.3,27.3l81,3c11.6-5.5,16.6-19.8,16.8-26.4
			l2.2-63.6C375.9,52.6,375.1,49.7,359.4,42.5z M268.7,108.5c-4.5-11.2,0.5-23.7,11.2-28s22.9,1.4,27.4,12.6s-0.5,23.7-11.2,28
			S273.2,119.8,268.7,108.5L268.7,108.5z M316.3,131.1c10.2,0.3,18.6-1.7,18.4,3.6s-8.8,15.9-19,15.6s-18.2-11.4-18-16.7
			S306.1,130.8,316.3,131.1L316.3,131.1z M369.1,111.2c-4.6,11.6-17.4,17.4-28.4,13c-11.1-4.4-16.3-17.4-11.6-29s17.4-17.4,28.4-13
			S373.8,99.6,369.1,111.2L369.1,111.2z"/>
		<path class="st20" d="M316.3,133.6c7.4,0.2,13.4-1.2,13.3,2.6s-6.3,11.4-13.7,11.2s-13.1-8.2-13-12S309,133.4,316.3,133.6z"/>
		<path class="st12" d="M326.6,142.2l-2-4.6l2-4c-2.4-0.3-6.1,0.1-10.3,0s-8-0.8-10.5-0.6l0.9,4.6l-1.7,3.2
			c2.3,3.3,6.3,6.5,10.9,6.6C320.2,147.6,324.1,145.1,326.6,142.2z"/>
		<path class="st9" d="M277.6,219.6c-0.9,0-1.9-0.1-2.8-0.2c-11.9-1.4-21.6-11.1-28.8-28.9l9.3-3.8c5.8,14.2,12.7,21.8,20.7,22.7
			c12.9,1.5,27.4-14.6,31.8-20.9l8.2,5.8C315.1,195.4,297.8,219.6,277.6,219.6z"/>
		<path class="st13" d="M250.8,182c0,0,2.1-7.1,3.4-6.8s0.7,10.7,0.7,10.7"/>
		<rect x="189.4" y="163.6" class="st29" width="32.9" height="12.9"/>
		<rect x="206" y="176.5" class="st30" width="16.3" height="3.8"/>
		<rect x="206" y="176.5" class="st31" width="16.3" height="1.5"/>
		<rect x="189.4" y="163.6" class="st32" width="32.9" height="2.9"/>
		<rect x="189.4" y="173.6" class="st33" width="32.9" height="2.9"/>
		<polygon class="st30" points="192.1,159 189.4,159 189.4,163.6 194.3,163.6 		"/>
		<path class="st34" d="M242.2,165.8l4.6-1.8c0.9-0.4,2,0,2.6,0.9l0,0c0.5,0.9,0.3,2.1-0.5,2.7l-6.8,5.2L242.2,165.8z"/>
		<path class="st30" d="M225.1,187.3H243l7.4-5.3l-5.7-7v-10c0-1.5-1.2-2.7-2.7-2.7c0,0-0.1,0-0.1,0h-22.3v19.6
			C219.7,184.9,222.1,187.3,225.1,187.3C225.1,187.3,225.1,187.3,225.1,187.3z"/>
		<rect x="222.3" y="164.4" class="st35" width="18.3" height="20.2"/>
		<rect x="222.3" y="170" class="st36" width="18.3" height="9"/>
		<path class="st37" d="M242.4,187.3c0,0,5.6,3.6,6.3,13.6c0.2,2.8,2.5,5,5.4,4.9h4.5c3,0,5.4-2.4,5.4-5.3c0-0.6-0.1-1.1-0.3-1.7
			c-1.5-4.9-6.8-12.8-15.4-19.6L242.4,187.3z"/>
		<path class="st13" d="M237.2,187.5c6.5-1.5,12.5,2.1,7.3,3.4S232.6,188.6,237.2,187.5z"/>
		<path class="st13" d="M244.9,190.2c8,0.4,11.4,3.2,10.9,5.9s-3.9,4.1-6.4,4.1S241.3,192.6,244.9,190.2z"/>
		<path class="st13" d="M390.6,175.6c-4.3-2.4-2.9-15.9,0.4-15S404.9,169.4,390.6,175.6z"/>
	</g>
</g>
</svg>
